<svg height="512pt" viewBox="0 0 512 512" width="512pt" xmlns="http://www.w3.org/2000/svg"><path d="m291.355469 512h-70.710938c-2.285156 0-4.46875-.914062-6.074219-2.542969l-144.289062-146.285156c-52.753906-53.488281-67.902344-130.195313-38.570312-195.421875 1.425781-3.167969 2.953124-6.34375 4.605468-9.535156 1.589844-3.257813 41.796875-84.632813 110.023438-130.515625 26.929687-18.125 59.03125-27.699219 92.832031-27.699219h33.664063c33.800781 0 65.902343 9.574219 92.835937 27.699219 68.222656 45.882812 108.429687 127.257812 110.113281 130.695312 1.5625 3.011719 3.097656 6.195313 4.523438 9.363281 29.320312 65.226563 14.171875 141.933594-38.582032 195.414063l-144.296874 146.292969c-1.605469 1.621094-3.796876 2.535156-6.074219 2.535156zm-67.140625-17.066406h63.5625l141.789062-143.753906c47.769532-48.425782 61.570313-117.691407 35.160156-176.441407v-.007812c-1.289062-2.886719-2.6875-5.769531-4.191406-8.679688-.484375-.980469-40.046875-80.921875-104.386718-124.203125-24.117188-16.214844-52.925782-24.78125-83.320313-24.78125h-33.664063c-30.394531 0-59.203124 8.566406-83.3125 24.789063-64.449218 43.351562-103.902343 123.214843-104.292968 124.015625-1.597656 3.089844-2.988282 5.980468-4.285156 8.875-26.410157 58.75-12.609376 128.007812 35.160156 176.441406zm0 0"/><path d="m503.464844 512h-212.109375c-3.441407 0-6.546875-2.066406-7.878907-5.238281-1.332031-3.175781-.621093-6.835938 1.800782-9.285157l84.019531-85.179687c2.527344-2.550781 6.367187-3.25 9.632813-1.765625 16.828124 7.722656 33.289062 14.214844 47.804687 19.949219 47.640625 18.800781 85.265625 33.648437 85.265625 72.984375 0 4.710937-3.824219 8.535156-8.535156 8.535156zm-191.707032-17.066406h182.175782c-5.152344-20.652344-30.128906-31.480469-73.460938-48.582032-13.160156-5.195312-27.898437-11.015624-43.195312-17.839843zm0 0"/><path d="m220.644531 512h-212.109375c-4.710937 0-8.535156-3.824219-8.535156-8.535156 0-39.335938 37.625-54.183594 85.257812-72.992188 14.523438-5.734375 30.984376-12.226562 47.800782-19.949218 3.269531-1.488282 7.117187-.785157 9.636718 1.765624l84.019532 85.179688c2.414062 2.449219 3.121094 6.109375 1.800781 9.285156-1.324219 3.171875-4.429687 5.246094-7.871094 5.246094zm-202.578125-17.066406h182.175782l-65.519532-66.421875c-15.296875 6.824219-30.035156 12.644531-43.195312 17.839843-43.332032 17.101563-68.308594 27.929688-73.460938 48.582032zm0 0"/><path d="m291.355469 512h-70.710938c-2.285156 0-4.46875-.914062-6.074219-2.542969l-144.289062-146.285156c-33.691406-34.152344-53.042969-80.34375-53.105469-126.722656 2.425781-80.074219 107.335938-142.582031 238.824219-142.582031s236.398438 62.507812 238.824219 142.308593c-.0625 46.652344-19.414063 92.84375-53.105469 126.996094l-144.296875 146.292969c-1.597656 1.621094-3.789063 2.535156-6.066406 2.535156zm-67.140625-17.066406h63.5625l141.789062-143.753906c30.566406-30.984376 48.128906-72.8125 48.1875-114.765626-2.097656-69.066406-101.578125-125.480468-221.753906-125.480468s-219.65625 56.414062-221.765625 125.753906c.0625 41.679688 17.621094 83.507812 48.1875 114.492188zm0 0"/><path d="m277.078125 512h-42.15625c-2.609375 0-5.078125-1.195312-6.699219-3.25l-133.988281-169.890625c-27.070313-27.625-42.710937-64.71875-42.921875-101.847656 2.601562-65.363281 107.9375-109.011719 204.6875-109.011719s202.085938 43.648438 204.679688 108.621094c-.210938 37.511718-15.84375 74.605468-42.921876 102.230468l-133.980468 169.898438c-1.621094 2.054688-4.089844 3.25-6.699219 3.25zm-38.015625-17.066406h33.875l131.714844-167.007813c.195312-.246093.398437-.484375.621094-.707031 24.175781-24.523438 38.152343-57.429688 38.347656-90.300781-2.105469-52.402344-100.792969-91.851563-187.621094-91.851563s-185.515625 39.449219-187.632812 92.246094c.199218 32.476562 14.175781 65.390625 38.351562 89.90625.222656.222656.433594.460938.621094.707031zm0 0"/><path d="m409.601562 477.867188c-4.710937 0-8.535156-3.824219-8.535156-8.535157v-85.75c0-4.710937 3.824219-8.535156 8.535156-8.535156 4.707032 0 8.53125 3.824219 8.53125 8.535156v85.75c0 4.710938-3.824218 8.535157-8.53125 8.535157zm0 0"/><path d="m102.398438 477.867188c-4.707032 0-8.53125-3.824219-8.53125-8.535157v-85.75c0-4.710937 3.824218-8.535156 8.53125-8.535156 4.710937 0 8.535156 3.824219 8.535156 8.535156v85.75c0 4.710938-3.824219 8.535157-8.535156 8.535157zm0 0"/><path d="m256 358.65625c-14.113281 0-25.601562-11.484375-25.601562-25.601562v-17.320313c0-28.28125 13.996093-56.3125 34.824218-69.742187 4.992188-3.21875 7.921875-8.6875 7.835938-14.621094-.121094-8.992188-8.449219-17.925782-16.8125-18.039063 0 0-.007813 0-.015625 0-4.351563 0-8.40625 1.742188-11.613281 4.90625-3.609376 3.578125-5.683594 8.449219-5.683594 13.390625 0 14.113282-11.484375 25.601563-25.601563 25.601563-14.113281 0-25.597656-11.488281-25.597656-25.601563 0-18.542968 7.636719-36.710937 20.949219-49.835937 12.839844-12.679688 29.660156-19.660157 47.34375-19.660157h.953125c35.953125.503907 66.773437 31.882813 67.285156 68.523438.324219 23.6875-11.367187 45.507812-31.28125 58.351562-6.179687 3.984376-11.382813 16.222657-11.382813 26.726563v17.320313c0 14.117187-11.488281 25.601562-25.601562 25.601562zm.035156-162.390625c18.117188.25 33.832032 16.539063 34.089844 34.867187.171875 11.84375-5.683594 22.757813-15.648438 29.195313-16.15625 10.425781-27.011718 32.679687-27.011718 55.40625v17.320313c0 4.703124 3.824218 8.535156 8.535156 8.535156s8.535156-3.832032 8.535156-8.535156v-17.320313c0-14.25 6.59375-32.941406 19.199219-41.0625 14.941406-9.644531 23.714844-26.003906 23.464844-43.777344-.382813-27.640625-23.5-51.308593-50.464844-51.695312-.007813 0-.007813 0-.015625 0-13.867188 0-26.421875 5.230469-36.054688 14.738281-10.085937 9.941406-15.863281 23.679688-15.863281 37.691406 0 4.703125 3.820313 8.535156 8.53125 8.535156 4.710938 0 8.535157-3.832031 8.535157-8.535156 0-9.472656 3.925781-18.78125 10.777343-25.53125 6.425781-6.339844 14.726563-9.832031 23.390625-9.832031zm0 0"/><path d="m273.066406 426.667969h-34.132812c-4.710938 0-8.535156-3.824219-8.535156-8.535157v-34.132812c0-4.710938 3.824218-8.535156 8.535156-8.535156h34.132812c4.710938 0 8.535156 3.824218 8.535156 8.535156v34.132812c0 4.710938-3.824218 8.535157-8.535156 8.535157zm-25.601562-17.066407h17.070312v-17.066406h-17.070312zm0 0"/><path d="m277.078125 512h-42.15625c-2.609375 0-5.078125-1.195312-6.699219-3.25l-54.3125-68.863281c-2.355468-2.988281-2.449218-7.160157-.238281-10.25 2.207031-3.097657 6.203125-4.359375 9.777344-3.082031l5.308593 1.894531c20.054688 7.160156 42.785157 15.285156 67.242188 15.285156s47.1875-8.125 67.234375-15.292969l5.308594-1.894531c3.582031-1.269531 7.566406-.007813 9.777343 3.082031 2.210938 3.089844 2.117188 7.269532-.238281 10.246094l-54.316406 68.867188c-1.609375 2.0625-4.078125 3.257812-6.6875 3.257812zm-38.015625-17.066406h33.875l33.792969-42.847656c-15.429688 4.773437-32.605469 8.714843-50.730469 8.714843s-35.300781-3.941406-50.730469-8.714843zm0 0"/></svg>